<svg width="20" height="24" viewBox="0 0 20 24" fill="none" xmlns="http://www.w3.org/2000/svg">
<g clip-path="url(#clip0_2_48)">
<path d="M7.5 15H9.33333L27.7917 -7.14999L25.9583 -9.34999L7.5 12.8V15ZM33.0833 -9.29999L27.75 -15.7L29.5 -17.8C29.9722 -18.3667 30.5556 -18.65 31.25 -18.65C31.9444 -18.65 32.5278 -18.3667 33 -17.8L34.8333 -15.6C35.3056 -15.0333 35.5417 -14.3333 35.5417 -13.5C35.5417 -12.6667 35.3056 -11.9667 34.8333 -11.4L33.0833 -9.29999ZM31.3333 -7.19999L10.3333 18H5V11.6L26 -13.6L31.3333 -7.19999ZM26.875 -8.24999L25.9583 -9.34999L27.7917 -7.14999L26.875 -8.24999Z" fill="#696A6A"/>
</g>
<defs>
<clipPath id="clip0_2_48">
<rect width="20" height="24" fill="white"/>
</clipPath>
</defs>
</svg>
